<?xml version="1.0" standalone="no"?><!-- Generator: Gravit.io --><svg xmlns="http://www.w3.org/2000/svg" xmlns:xlink="http://www.w3.org/1999/xlink" style="isolation:isolate" viewBox="15 6.979 137 38.736" width="137" height="38.736"><g id="Group"><g id="Group"><g id="Group"><path d=" M 21.783 40.894 L 51.457 40.894 C 52.393 40.894 53.152 40.275 53.152 39.511 L 53.152 9.075 C 53.152 8.311 52.393 7.692 51.457 7.692 L 21.783 7.692 C 20.846 7.692 20.087 8.311 20.087 9.075 L 20.087 39.511 C 20.087 40.275 20.846 40.894 21.783 40.894 Z " fill="rgb(250,239,222)"/><path d=" M 24.326 40.894 L 15.848 40.894 L 15.848 9.767 C 15.848 8.621 16.987 7.692 18.391 7.692 L 24.326 7.692 L 24.326 40.894 Z " fill="rgb(145,169,208)"/><path d=" M 49.761 45.045 L 17.543 45.045 C 16.607 45.045 15.848 44.425 15.848 43.661 L 15.848 42.278 C 15.848 41.514 16.607 40.894 17.543 40.894 L 49.761 40.894 C 50.697 40.894 51.457 41.514 51.457 42.278 L 51.457 43.661 C 51.457 44.425 50.697 45.045 49.761 45.045 Z " fill="rgb(239,216,190)"/><path d=" M 24.326 9.767 C 23.858 9.767 23.478 10.077 23.478 10.459 L 23.478 13.226 C 23.478 13.608 23.858 13.917 24.326 13.917 C 24.794 13.917 25.174 13.608 25.174 13.226 L 25.174 10.459 C 25.174 10.077 24.794 9.767 24.326 9.767 Z " fill="rgb(62,103,198)"/><path d=" M 51.457 6.979 L 18.391 6.979 C 16.52 6.979 15 8.219 15 9.745 L 15 42.948 C 15 44.475 16.52 45.715 18.391 45.715 L 49.761 45.715 C 51.161 45.715 52.304 44.783 52.304 43.64 L 52.304 41.437 C 53.288 41.151 54 40.389 54 39.49 L 54 9.054 C 54 7.911 52.857 6.979 51.457 6.979 Z  M 50.609 43.64 C 50.609 44.02 50.227 44.332 49.761 44.332 L 18.391 44.332 C 17.457 44.332 16.696 43.71 16.696 42.948 C 16.696 42.086 17.874 41.565 18.391 41.565 L 50.609 41.565 L 50.609 43.64 Z  M 52.304 39.49 C 52.304 39.87 51.923 40.181 51.457 40.181 L 25.174 40.181 L 25.174 15.971 C 25.174 15.589 24.794 15.279 24.326 15.279 C 23.858 15.279 23.478 15.589 23.478 15.971 L 23.478 40.181 L 18.391 40.181 C 17.868 40.181 17.255 40.336 16.696 40.619 L 16.696 9.745 C 16.696 8.983 17.457 8.362 18.391 8.362 L 51.457 8.362 C 51.923 8.362 52.304 8.673 52.304 9.054 L 52.304 39.49 Z " fill="rgb(62,103,198)"/><path d=" M 20.935 9.767 L 19.239 9.767 C 18.771 9.767 18.391 10.077 18.391 10.459 C 18.391 10.841 18.771 11.15 19.239 11.15 L 20.935 11.15 C 21.403 11.15 21.783 10.841 21.783 10.459 C 21.783 10.077 21.403 9.767 20.935 9.767 Z  M 20.935 13.226 L 19.239 13.226 C 18.771 13.226 18.391 13.535 18.391 13.917 C 18.391 14.299 18.771 14.609 19.239 14.609 L 20.935 14.609 C 21.403 14.609 21.783 14.299 21.783 13.917 C 21.783 13.535 21.403 13.226 20.935 13.226 Z  M 20.935 16.684 L 19.239 16.684 C 18.771 16.684 18.391 16.994 18.391 17.376 C 18.391 17.758 18.771 18.068 19.239 18.068 L 20.935 18.068 C 21.403 18.068 21.783 17.758 21.783 17.376 C 21.783 16.994 21.403 16.684 20.935 16.684 Z  M 20.935 20.143 L 19.239 20.143 C 18.771 20.143 18.391 20.452 18.391 20.834 C 18.391 21.216 18.771 21.526 19.239 21.526 L 20.935 21.526 C 21.403 21.526 21.783 21.216 21.783 20.834 C 21.783 20.452 21.403 20.143 20.935 20.143 Z  M 20.935 23.601 L 19.239 23.601 C 18.771 23.601 18.391 23.911 18.391 24.293 C 18.391 24.675 18.771 24.985 19.239 24.985 L 20.935 24.985 C 21.403 24.985 21.783 24.675 21.783 24.293 C 21.783 23.911 21.403 23.601 20.935 23.601 Z  M 20.935 27.06 L 19.239 27.06 C 18.771 27.06 18.391 27.37 18.391 27.752 C 18.391 28.134 18.771 28.443 19.239 28.443 L 20.935 28.443 C 21.403 28.443 21.783 28.134 21.783 27.752 C 21.783 27.37 21.403 27.06 20.935 27.06 Z  M 20.935 30.519 L 19.239 30.519 C 18.771 30.519 18.391 30.828 18.391 31.21 C 18.391 31.592 18.771 31.902 19.239 31.902 L 20.935 31.902 C 21.403 31.902 21.783 31.592 21.783 31.21 C 21.783 30.828 21.403 30.519 20.935 30.519 Z  M 20.935 33.977 L 19.239 33.977 C 18.771 33.977 18.391 34.287 18.391 34.669 C 18.391 35.051 18.771 35.361 19.239 35.361 L 20.935 35.361 C 21.403 35.361 21.783 35.051 21.783 34.669 C 21.783 34.287 21.403 33.977 20.935 33.977 Z  M 20.935 37.436 L 19.239 37.436 C 18.771 37.436 18.391 37.746 18.391 38.128 C 18.391 38.51 18.771 38.819 19.239 38.819 L 20.935 38.819 C 21.403 38.819 21.783 38.51 21.783 38.128 C 21.783 37.746 21.403 37.436 20.935 37.436 Z " fill="rgb(42,93,176)"/><path d=" M 48.913 29.146 C 47.979 29.146 47.217 28.525 47.217 27.763 L 47.217 22.983 C 47.375 22.732 47.328 22.427 47.098 22.216 C 46.867 22.005 46.502 21.93 46.177 22.029 C 45.853 22.128 45.636 22.379 45.631 22.661 C 45.092 22.38 44.466 22.23 43.826 22.229 L 42.978 22.229 C 41.107 22.229 39.587 23.469 39.587 24.996 L 39.587 27.763 C 39.587 29.289 41.107 30.53 42.978 30.53 L 43.826 30.53 C 44.843 30.53 45.747 30.154 46.37 29.573 C 46.992 30.154 47.896 30.53 48.913 30.53 C 49.384 30.53 49.761 30.222 49.761 29.838 C 49.761 29.454 49.384 29.146 48.913 29.146 Z  M 45.522 27.763 C 45.522 28.525 44.76 29.146 43.826 29.146 L 42.978 29.146 C 42.044 29.146 41.283 28.525 41.283 27.763 L 41.283 24.996 C 41.283 24.234 42.044 23.613 42.978 23.613 L 43.826 23.613 C 44.76 23.613 45.522 24.234 45.522 24.996 L 45.522 27.763 Z  M 33.937 18.527 C 33.821 18.246 33.497 18.056 33.134 18.056 C 32.77 18.056 32.447 18.246 32.33 18.527 L 27.754 29.595 C 27.666 29.805 27.708 30.038 27.867 30.219 C 28.026 30.4 28.282 30.508 28.555 30.508 C 28.919 30.508 29.244 30.319 29.36 30.038 L 30.89 26.339 C 30.933 26.344 30.97 26.358 31.016 26.358 L 35.255 26.358 C 35.298 26.358 35.334 26.344 35.377 26.339 L 36.908 30.038 C 36.998 30.279 37.242 30.46 37.544 30.512 C 37.846 30.564 38.159 30.478 38.36 30.287 C 38.562 30.096 38.621 29.831 38.514 29.595 L 33.937 18.527 Z  M 31.453 24.974 L 33.132 20.913 L 34.815 24.974 L 31.453 24.974 Z " fill="rgb(59,150,206)"/></g></g><g transform="matrix(0.904,0,0,1,64,15.847)"><text transform="matrix(1,0,0,1,0,15.75)" style="font-family:&quot;Orbitron&quot;;font-weight:400;font-size:21px;font-style:normal;fill:#ffffff;stroke:none;">Lexicon</text></g></g></svg>